<svg width="20" height="20" viewBox="0 0 20 20" fill="none" xmlns="http://www.w3.org/2000/svg">
<path d="M14.6333 17.5C14.5 17.5005 14.3686 17.4691 14.25 17.4083L9.99998 15.1833L5.74999 17.4083C5.61198 17.4809 5.45638 17.5133 5.30088 17.5018C5.14538 17.4903 4.99622 17.4355 4.87034 17.3435C4.74447 17.2514 4.64694 17.126 4.58883 16.9813C4.53073 16.8366 4.51438 16.6785 4.54165 16.525L5.37498 11.8333L1.94165 8.49997C1.83453 8.39307 1.75854 8.25902 1.72184 8.11221C1.68514 7.9654 1.68911 7.81136 1.73332 7.66663C1.78162 7.51853 1.87047 7.38693 1.98978 7.28676C2.10909 7.1866 2.25409 7.12189 2.40832 7.09997L7.15832 6.4083L9.24999 2.1333C9.31822 1.99241 9.42477 1.87358 9.55741 1.79044C9.69006 1.7073 9.84344 1.66321 9.99998 1.66321C10.1565 1.66321 10.3099 1.7073 10.4426 1.79044C10.5752 1.87358 10.6817 1.99241 10.75 2.1333L12.8667 6.39997L17.6167 7.09163C17.7709 7.11355 17.9159 7.17827 18.0352 7.27843C18.1545 7.37859 18.2434 7.51019 18.2917 7.6583C18.3359 7.80303 18.3398 7.95706 18.3031 8.10388C18.2664 8.25069 18.1904 8.38474 18.0833 8.49163L14.65 11.825L15.4833 16.5166C15.5131 16.6729 15.4975 16.8343 15.4384 16.982C15.3794 17.1297 15.2793 17.2573 15.15 17.35C14.9991 17.4557 14.8174 17.5085 14.6333 17.5Z" fill="#D3D3D3"/>
</svg>
